# Wavefront OBJ file
# Exported by Misfit Model 3D 1.3.8
# Sun Aug 14 19:56:35 2011

# 5 Vertices
v 0.5 0.5 -1.0
v -0.5 0.5 -1.0
v 0.5 -0.5 -1.0
v -0.5 -0.5 -1.0
v 0.0 0.0 -0.005955

# 18 Texture Coordinates
vt 0.0 0.0
vt 0.0 1.0
vt 1.0 1.0
vt 0.0 1.0
vt 1.0 1.0
vt 1.0 1.0
vt 1.0 1.0
vt 1.0 0.0
vt 1.0 1.0
vt 1.0 0.0
vt 0.0 0.0
vt 1.0 1.0
vt 0.0 0.0
vt 1.0 0.0
vt 1.0 1.0
vt 1.0 1.0
vt 0.0 1.0
vt 0.0 0.0

# 18 Vertex Normals
vn 0.576197 0.576197 0.579649
vn -0.576197 0.576197 0.579649
vn 0.0 0.552407 0.833574
vn -0.576197 0.576197 0.579649
vn -0.576197 -0.576197 0.579649
vn -0.552407 0.0 0.833574
vn -0.576197 -0.576197 0.579649
vn 0.576197 -0.576197 0.579649
vn 0.0 -0.552407 0.833574
vn 0.576197 -0.576197 0.579649
vn 0.576197 0.576197 0.579649
vn 0.552407 0.0 0.833574
vn 0.0 0.0 -1.0
vn 0.0 0.0 -1.0
vn 0.0 0.0 -1.0
vn 0.0 0.0 -1.0
vn 0.0 0.0 -1.0
vn 0.0 0.0 -1.0

# ungrouped, 6 grouped triangles

o ungrouped
g ungrouped

f 1/1/1 2/2/2 5/3/3
f 2/4/4 4/5/5 5/6/6
f 4/7/7 3/8/8 5/9/9
f 3/10/10 1/11/11 5/12/12
f 1/13/13 3/14/14 4/15/15
f 4/16/16 2/17/17 1/18/18
